<svg width="24" height="24" viewBox="0 0 24 24" fill="none" xmlns="http://www.w3.org/2000/svg">
<path d="M13.0602 12.0038L20.7804 4.28028C21.0732 3.98731 21.0732 3.5127 20.7804 3.21973C20.4875 2.92676 20.0131 2.92676 19.7202 3.21973L12.0001 10.9432L4.27976 3.21973C3.98691 2.92676 3.51249 2.92676 3.21964 3.21973C2.92679 3.5127 2.92679 3.98731 3.21964 4.28028L10.94 12.0038L3.22695 19.7202C2.9341 20.0132 2.9341 20.4878 3.22695 20.7808C3.37338 20.9272 3.5652 21.0005 3.75701 21.0005C3.94882 21.0005 4.14064 20.9273 4.28706 20.7808L12.0001 13.0643L19.7134 20.7808C19.8598 20.9272 20.0512 21.0005 20.2435 21.0005C20.4358 21.0005 20.6271 20.9273 20.7735 20.7808C21.0664 20.4878 21.0664 20.0132 20.7735 19.7202L13.0602 12.0038Z" fill="#1A1A1A"/>
</svg>
