<svg width="12" height="12" viewBox="0 0 12 12" fill="none" xmlns="http://www.w3.org/2000/svg">
<g clip-path="url(#clip0_291_7213)">
<path fill-rule="evenodd" clip-rule="evenodd" d="M12 6C12 9.31371 9.31371 12 6 12C2.68629 12 0 9.31371 0 6C0 2.68629 2.68629 0 6 0C9.31371 0 12 2.68629 12 6ZM4.14283 8.23265C4.06862 8.23264 3.99609 8.21062 3.93439 8.16939C3.87269 8.12816 3.82461 8.06956 3.79621 8.001C3.76782 7.93244 3.76038 7.857 3.77486 7.78422C3.78933 7.71144 3.82506 7.64458 3.87753 7.5921L5.46938 5.99993L3.87749 4.40772C3.84207 4.37301 3.81389 4.33162 3.79456 4.28595C3.77524 4.24028 3.76516 4.19123 3.76491 4.14164C3.76466 4.09205 3.77424 4.0429 3.7931 3.99703C3.81196 3.95117 3.83973 3.9095 3.8748 3.87443C3.90987 3.83937 3.95154 3.8116 3.9974 3.79274C4.04326 3.77387 4.09241 3.76429 4.142 3.76454C4.1916 3.76479 4.24065 3.77487 4.28632 3.79419C4.33199 3.81352 4.37338 3.84171 4.40809 3.87713L5.99992 5.46928L7.59185 3.87703C7.62656 3.84161 7.66795 3.81343 7.71362 3.7941C7.75929 3.77478 7.80834 3.7647 7.85793 3.76445C7.90752 3.7642 7.95667 3.77378 8.00254 3.79264C8.0484 3.81151 8.09007 3.83927 8.12514 3.87434C8.16021 3.90941 8.18797 3.95108 8.20684 3.99694C8.2257 4.04281 8.23528 4.09196 8.23503 4.14155C8.23478 4.19114 8.2247 4.24019 8.20538 4.28586C8.18605 4.33153 8.15787 4.37292 8.12245 4.40763L6.53047 5.99993L8.12241 7.59219C8.17488 7.64467 8.21061 7.71153 8.22508 7.78431C8.23955 7.85709 8.23212 7.93253 8.20373 8.00109C8.17533 8.06965 8.12724 8.12825 8.06555 8.16948C8.00385 8.21072 7.93134 8.23271 7.85713 8.23272C7.80785 8.23278 7.75904 8.2231 7.7135 8.20423C7.66797 8.18537 7.62662 8.15769 7.59182 8.12279L5.99992 6.53058L4.40812 8.1227C4.37332 8.1576 4.33197 8.18528 4.28645 8.20415C4.24092 8.22302 4.19211 8.2327 4.14283 8.23265Z" fill="#D9000C"/>
</g>
<defs>
<clipPath id="clip0_291_7213">
<rect width="12" height="12" fill="white"/>
</clipPath>
</defs>
</svg>
