<svg width="24" height="25" viewBox="0 0 24 25" fill="none" xmlns="http://www.w3.org/2000/svg">
<path fill-rule="evenodd" clip-rule="evenodd" d="M7.2774 12.5001C7.2774 11.9804 7.3637 11.4823 7.51774 11.015L4.82153 8.95605C4.29606 10.023 4 11.2252 4 12.5001C4 13.7739 4.29569 14.9754 4.82044 16.0416L7.51519 13.9786C7.36261 13.5135 7.2774 13.0172 7.2774 12.5001Z" fill="#FBBC05"/>
<path fill-rule="evenodd" clip-rule="evenodd" d="M12.0112 7.77275C13.14 7.77275 14.1597 8.17275 14.9608 8.8273L17.2914 6.50001C15.8712 5.26364 14.0504 4.5 12.0112 4.5C8.8452 4.5 6.12424 6.31056 4.82129 8.95603L7.51749 11.0149C8.13874 9.12912 9.90963 7.77275 12.0112 7.77275Z" fill="#FE584D"/>
<path fill-rule="evenodd" clip-rule="evenodd" d="M12.0112 17.2276C9.90963 17.2276 8.13874 15.8712 7.51749 13.9854L4.82129 16.0439C6.12424 18.6897 8.8452 20.5003 12.0112 20.5003C13.9652 20.5003 15.8308 19.8065 17.231 18.5065L14.6717 16.5279C13.9496 16.9828 13.0403 17.2276 12.0112 17.2276Z" fill="#34A853"/>
<path fill-rule="evenodd" clip-rule="evenodd" d="M19.6585 12.4995C19.6585 12.0267 19.5857 11.5177 19.4764 11.0449H12.0112V14.1358H16.3083C16.0934 15.1897 15.5086 15.9999 14.6717 16.5271L17.231 18.5057C18.7019 17.1406 19.6585 15.1071 19.6585 12.4995Z" fill="#4285F4"/>
</svg>
