<svg width="25" height="25" viewBox="0 0 25 25" fill="none" xmlns="http://www.w3.org/2000/svg">
<path fill-rule="evenodd" clip-rule="evenodd" d="M14.7792 7.09749C15.3137 6.42389 15.7189 5.47183 15.5724 4.5C14.6987 4.55927 13.6775 5.10493 13.0817 5.81616C12.5385 6.4606 12.0921 7.41926 12.2665 8.34969C13.2215 8.37886 14.2073 7.82002 14.7792 7.09749ZM19.5 16.2391C19.1178 17.0707 18.9339 17.4423 18.4415 18.179C17.7546 19.2073 16.7861 20.4877 15.5848 20.4971C14.5186 20.5084 14.2437 19.815 12.7962 19.8235C11.3487 19.831 11.047 20.5102 9.97885 20.4999C8.77853 20.4895 7.8608 19.3342 7.17394 18.306C5.25228 15.4328 5.05015 12.0601 6.23514 10.2661C7.07815 8.99223 8.40779 8.24713 9.65697 8.24713C10.9282 8.24713 11.7281 8.93203 12.7809 8.93203C13.8021 8.93203 14.4238 8.24526 15.8942 8.24526C17.0074 8.24526 18.1866 8.84077 19.0258 9.8681C16.2746 11.3489 16.72 15.207 19.5 16.2391Z" fill="#1A1A1A"/>
</svg>
