<svg width="34" height="36" viewBox="0 0 34 36" fill="none" xmlns="http://www.w3.org/2000/svg">
<path d="M32.2589 14.1197C29.7623 10.9341 26.2473 7.88414 21.6812 5.10524H21.6483C17.0493 2.39412 12.713 0.80134 8.80386 0.157449C6.37295 -0.249218 5.19034 0.225227 4.66473 0.530228C4.13913 0.835229 3.15362 1.64856 2.26667 4.02079C0.854106 7.85025 0.0328502 12.5269 0 17.9831V18.0169C0.0328502 23.507 0.854106 28.1498 2.26667 31.9792C3.15362 34.3514 4.13913 35.1648 4.66473 35.4698C5.19034 35.7748 6.37295 36.2492 8.80386 35.8426C12.713 35.1987 17.0493 33.6059 21.6483 30.8948H21.6812C26.2473 28.1159 29.7623 25.0659 32.2589 21.8803C33.8357 19.9147 34 18.6269 34 17.9831C34 17.3731 33.8357 16.0853 32.2589 14.1197Z" fill="#FF6900"/>
</svg>
